<?xml version="1.0" standalone="no"?><!DOCTYPE svg PUBLIC "-//W3C//DTD SVG 1.1//EN" "http://www.w3.org/Graphics/SVG/1.1/DTD/svg11.dtd"><svg t="1515210470931" class="icon" style="" viewBox="0 0 1024 1024" version="1.1" xmlns="http://www.w3.org/2000/svg" p-id="1877" xmlns:xlink="http://www.w3.org/1999/xlink" width="16" height="16"><defs><style type="text/css"></style></defs><path d="M873.501 873.747c-12.056 12.056-31.6 12.056-43.657 0l-184.091-184.091c-53.236 43.471-121.188 69.603-195.271 69.603-170.669 0-309.024-138.355-309.024-309.024s138.355-309.020 309.024-309.020 309.020 138.355 309.020 309.020c0 33.653-5.807 65.843-15.818 96.137-0.575 3.731-1.822 7.198-3.606 10.358-0.973 2.637-1.734 5.372-2.776 7.977l-1.743-1.747c-5.618 5.876-13.496 9.58-22.266 9.58-17.048 0-30.869-13.822-30.869-30.868l-0.283-2.864c0-8.115 3.198-15.439 8.315-20.949l-2.864-2.86c5.724-20.834 9.028-42.678 9.028-65.332 0-136.256-110.458-246.713-246.713-246.713-136.256 0-246.713 110.458-246.713 246.713 0 136.259 110.458 246.718 246.713 246.718 67.549 0 128.706-27.197 173.26-71.177 0.19-0.204 0.315-0.441 0.444-0.672l44.689 0.765 106.179 106.179 0.2-0.2 98.82 98.82c12.056 12.056 12.056 31.6 0 43.651z" p-id="1878" fill="#303030"></path></svg>