<?xml version="1.0" standalone="no"?><!DOCTYPE svg PUBLIC "-//W3C//DTD SVG 1.1//EN" "http://www.w3.org/Graphics/SVG/1.1/DTD/svg11.dtd"><svg t="1514988838693" class="icon" style="" viewBox="0 0 1024 1024" version="1.1" xmlns="http://www.w3.org/2000/svg" p-id="2131" xmlns:xlink="http://www.w3.org/1999/xlink" width="16" height="16"><defs><style type="text/css"></style></defs><path d="M400 239.616l-32 0c-24 0-37.376 11.84-47.168 38.656l-128.576 381.504c-5.952 17.536 3.072 36.736 20.096 42.816 17.088 6.144 35.712-3.2 41.6-20.736l35.776-106.176 188.608 0 34.176 101.952c3.264 120.896 101.76 218.048 223.424 218.048 49.792 0 95.36-16.832 132.544-44.288l97.088 97.024c12.992 12.992 34.048 12.992 47.04 0s12.992-34.048 0-47.04l-97.024-97.088C943.168 766.976 960 721.408 960 671.616c0-123.712-100.288-224-224-224-83.072 0-154.752 45.76-193.408 112.96l-95.36-284.288C438.4 251.584 425.024 239.616 400 239.616zM311.36 511.616l70.08-208 5.696 0 69.76 208L311.36 511.616zM863.552 767.296c-8.128 0.256-16.192 3.328-22.4 9.472-6.144 6.208-9.216 14.208-9.408 22.336-26.752 20.096-59.712 32.512-95.744 32.512-86.656 0-156.736-68.928-159.488-154.88 0.64-3.584 0.64-7.168 0.128-10.816 3.072-85.632 73.024-154.24 159.36-154.24 88.384 0 160 71.616 160 160C896 707.648 883.648 740.544 863.552 767.296zM416 831.616 128 831.616c-35.392 0-64-28.672-64-64l0-576c0-35.392 28.608-64 64-64l576 0c35.328 0 64 28.608 64 64l0 160c0 17.664 14.336 32 32 32S832 369.28 832 351.616l0-160c0-70.656-57.344-128-128-128L128 63.616c-70.656 0-128 57.344-128 128l0 576c0 70.656 57.344 128 128 128l288 0c17.664 0 32-14.336 32-32S433.664 831.616 416 831.616z" p-id="2132" fill="#000000"></path></svg>