<?xml version="1.0" standalone="no"?><!DOCTYPE svg PUBLIC "-//W3C//DTD SVG 1.1//EN" "http://www.w3.org/Graphics/SVG/1.1/DTD/svg11.dtd"><svg t="1533234487773" class="icon" style="" viewBox="0 0 1025 1024" version="1.1" xmlns="http://www.w3.org/2000/svg" p-id="2228" xmlns:xlink="http://www.w3.org/1999/xlink" width="12.01171875" height="12"><defs><style type="text/css"></style></defs><path d="M1017.749333 987.52 720.746667 690.538667c66.24-73.386667 106.965333-170.24 106.965333-276.672 0-228.202667-185.621333-413.866667-413.866667-413.866667C185.664 0 0 185.664 0 413.866667c0 228.224 185.664 413.866667 413.845333 413.866667 106.453333 0 203.306667-40.725333 276.693333-106.965333L987.52 1017.749333C991.701333 1021.909333 997.162667 1024 1002.624 1024c5.482667 0 10.965333-2.090667 15.125333-6.250667C1026.090667 1009.365333 1026.090667 995.882667 1017.749333 987.52zM42.730667 413.866667c0-204.650667 166.485333-371.136 371.114667-371.136 204.650667 0 371.157333 166.485333 371.136 371.136 0 204.629333-166.485333 371.136-371.136 371.136C209.216 785.002667 42.730667 618.496 42.730667 413.866667z" p-id="2229" fill="#2c2c2c"></path></svg>