<?xml version="1.0" standalone="no"?><!DOCTYPE svg PUBLIC "-//W3C//DTD SVG 1.1//EN" "http://www.w3.org/Graphics/SVG/1.1/DTD/svg11.dtd"><svg t="1535089156798" class="icon" style="" viewBox="0 0 1024 1024" version="1.1" xmlns="http://www.w3.org/2000/svg" p-id="2512" xmlns:xlink="http://www.w3.org/1999/xlink" width="18" height="18"><defs><style type="text/css"></style></defs><path d="M182.604977 469.380234c0.818627 8.083941 7.572299 14.223643 15.758569 14.223643l1.637254-0.102328c4.297792-0.409313 7.981613-2.455881 10.64215-5.832717 2.660538-3.274508 3.888478-7.367643 3.376836-11.665434-1.023284-10.02818-1.534926-19.44239-1.534926-28.8566 0-81.453383 36.326571-157.790347 99.565504-209.363845 3.274508-2.660538 5.321075-6.446687 5.730389-10.64215 0.409313-4.297792-0.818627-8.288598-3.479165-11.665434-2.865194-3.683821-7.469971-5.832717-12.279404-5.832717-2.558209 0-6.446687 0.61397-9.925852 3.479165-70.708904 57.713201-111.333267 142.952733-111.333267 233.922654C180.865394 447.686619 181.479364 458.32877 182.604977 469.380234z" p-id="2513"></path><path d="M963.677426 970.891576 776.723494 747.304087c2.455881-2.353553 4.911762-4.707105 7.265314-7.060658 39.191766-39.294094 70.094934-84.932547 91.583891-135.892076 22.307585-52.699111 33.563705-108.672729 33.563705-166.38593s-11.256121-113.686819-33.563705-166.38593c-21.488958-50.8572-52.289797-96.597981-91.583891-135.892076-39.294094-39.191766-84.932547-70.094934-135.892076-91.583891-52.699111-22.307585-108.672729-33.563705-166.38593-33.563705-57.713201 0-113.686819 11.256121-166.38593 33.563705-50.8572 21.488958-96.597981 52.289797-135.892076 91.583891s-70.094934 84.932547-91.583891 135.892076c-22.307585 52.699111-33.563705 108.672729-33.563705 166.38593s11.256121 113.686819 33.563705 166.38593c21.488958 50.8572 52.289797 96.597981 91.583891 135.892076 39.191766 39.191766 84.932547 70.094934 135.892076 91.583891 52.699111 22.307585 108.672729 33.563705 166.38593 33.563705 57.713201 0 113.686819-11.256121 166.38593-33.563705 31.824123-13.405016 61.49935-30.493854 88.923354-50.959528l186.646947 223.280504c5.116419 6.139702 12.484061 9.311882 19.954032 9.311882 5.935045 0 11.767763-1.944239 16.577196-6.037374C971.352054 998.110922 972.784651 981.840712 963.677426 970.891576zM481.813131 62.829619c100.179474 0 194.423903 38.987109 265.235135 109.90067 70.811232 70.811232 109.90067 165.055661 109.90067 265.235135 0 100.179474-38.987109 194.423903-109.90067 265.235135-70.811232 70.811232-165.055661 109.90067-265.235135 109.90067-100.179474 0-194.423903-38.987109-265.235135-109.90067-70.811232-70.811232-109.90067-165.055661-109.90067-265.235135 0-100.179474 38.987109-194.423903 109.90067-265.235135C287.389228 101.816728 381.531328 62.829619 481.813131 62.829619z" p-id="2514"></path></svg>