<?xml version="1.0" standalone="no"?><!DOCTYPE svg PUBLIC "-//W3C//DTD SVG 1.1//EN" "http://www.w3.org/Graphics/SVG/1.1/DTD/svg11.dtd"><svg t="1533238051266" class="icon" style="" viewBox="0 0 1024 1024" version="1.1" xmlns="http://www.w3.org/2000/svg" p-id="2222" xmlns:xlink="http://www.w3.org/1999/xlink" width="16" height="16"><defs><style type="text/css"></style></defs><path d="M933.308465 890.723577l-146.767692-157.046802c59.488883-71.644737 92.202958-160.954809 92.202958-254.974136 0-220.566488-179.481767-400.048255-400.110677-400.048255-220.566488 0-400.048255 179.451068-400.048255 400.048255s179.481767 400.048255 400.078954 400.048255c57.796334-0.030699 113.530706-12.094456 165.633365-35.82288 15.479553-7.04751 22.312168-25.297153 15.264659-40.74703-7.04751-15.511275-25.38925-22.373567-40.74703-15.264659-44.101427 20.066011-91.249237 30.252001-140.181693 30.2827-186.652074 0-338.498434-151.845337-338.498434-338.498434 0-186.621375 151.845337-338.498434 338.498434-338.498434 186.682773 0 338.559832 151.845337 338.559832 338.498434 0 87.863117-33.514301 171.111123-94.326319 234.415914-11.786441 12.248975-11.387351 31.729655 0.830925 43.516096 0.923022 0.892323 2.12336 1.231037 3.170203 2.000564 0.830925 1.231037 1.261737 2.64627 2.308579 3.75451L888.346437 932.700621c6.03239 6.493901 14.248516 9.756201 22.465664 9.756201 7.53972 0 15.07944-2.739391 21.019733-8.309246C944.234305 922.606729 944.910711 903.126049 933.308465 890.723577z" p-id="2223" fill="#ffffff"></path></svg>